<svg xmlns="http://www.w3.org/2000/svg" width="23.395" height="23.395" viewBox="0 0 23.395 23.395">
  <path id="Tracé_46" data-name="Tracé 46" d="M700.865,149.212a11.7,11.7,0,0,0-10.146,17.521l-1.507,4.68a.914.914,0,0,0,1.15,1.15l4.68-1.507a11.7,11.7,0,1,0,5.823-21.844Zm0,21.567a9.84,9.84,0,0,1-5.224-1.5.915.915,0,0,0-.765-.095l-3.379,1.088,1.088-3.379a.915.915,0,0,0-.1-.765,9.87,9.87,0,1,1,8.375,4.646Zm1.142-9.87a1.142,1.142,0,1,1-1.142-1.142,1.142,1.142,0,0,1,1.142,1.142Zm4.569,0a1.142,1.142,0,1,1-1.142-1.142,1.142,1.142,0,0,1,1.142,1.142Zm-9.139,0a1.142,1.142,0,1,1-1.142-1.142,1.142,1.142,0,0,1,1.142,1.142Zm0,0" transform="translate(-689.168 -149.212)" fill="#f4f5f9"/>
</svg>
