<svg xmlns="http://www.w3.org/2000/svg" width="101.431" height="186.477" viewBox="0 0 101.431 186.477">
  <g id="Groupe_49" data-name="Groupe 49" transform="translate(-491.004 -268.731)">
    <text id="PELOPS" transform="translate(491.004 447.208)" fill="#f4f5f9" font-size="26" font-family="Orkney-Bold, Orkney" font-weight="700" letter-spacing="0.04em"><tspan x="0" y="0">PELOPS</tspan></text>
    <path id="Tracé_55" data-name="Tracé 55" d="M594.978,318.62a49.889,49.889,0,0,1-49.889,49.889V410.24s-39.628-42.985-48.246-78.886A49.956,49.956,0,0,1,495.2,318.62c0-.325,0-.642.012-.954a49.888,49.888,0,0,1,99.766.954Zm-49.889-15.833a15.833,15.833,0,1,0,15.833,15.833A15.833,15.833,0,0,0,545.089,302.787Zm0-7.838" transform="translate(-2.543)" fill="#f4f5f9"/>
  </g>
</svg>
