<svg xmlns="http://www.w3.org/2000/svg" width="23.213" height="23.218" viewBox="0 0 23.213 23.218">
  <g id="Groupe_50" data-name="Groupe 50" transform="translate(-803.197 -817.541)">
    <path id="Tracé_56" data-name="Tracé 56" d="M815.529,840.759h-1.452c-.066-.013-.13-.03-.2-.039-.478-.067-.962-.1-1.433-.2A11.612,11.612,0,0,1,803.28,827.8a11.632,11.632,0,0,1,13.38-10.111,11.142,11.142,0,0,1,5.844,2.787,11.407,11.407,0,0,1,3.727,6.67c.075.422.119.849.179,1.274v1.452a1.152,1.152,0,0,0-.038.175,11.09,11.09,0,0,1-1.584,5,11.476,11.476,0,0,1-7.987,5.531C816.38,840.661,815.953,840.7,815.529,840.759Zm-.721-2.022a9.587,9.587,0,1,0-9.591-9.582A9.594,9.594,0,0,0,814.807,838.737Z" fill="#fff"/>
    <path id="Tracé_57" data-name="Tracé 57" d="M818.9,822.714a1.972,1.972,0,0,1-.072.23q-1.468,3.433-2.938,6.865a.777.777,0,0,1-.436.431q-3.413,1.454-6.824,2.921a.554.554,0,0,1-.671-.057.543.543,0,0,1-.064-.669q1.468-3.419,2.93-6.844a.721.721,0,0,1,.394-.409q3.455-1.476,6.905-2.959A.513.513,0,0,1,818.9,822.714Zm-6.548,4.986a1,1,0,1,0,1.005-1A1,1,0,0,0,812.351,827.7Z" transform="translate(1.448 1.45)" fill="#fff"/>
  </g>
</svg>
