<svg xmlns="http://www.w3.org/2000/svg" width="12.434" height="14.695" viewBox="0 0 12.434 14.695">
  <g id="Groupe_101" data-name="Groupe 101" transform="translate(-102 -685.505)">
    <path id="Tracé_47" data-name="Tracé 47" d="M175.589,420.626a.565.565,0,1,0-.795.8,5.052,5.052,0,0,1,1.508,3.616c0,.691-1.981,1.7-5.087,1.7s-5.087-1-5.087-1.7a5.052,5.052,0,0,1,1.489-3.6.565.565,0,1,0-.8-.8,6.176,6.176,0,0,0-1.82,4.4c0,1.836,3.2,2.826,6.217,2.826s6.217-.99,6.217-2.826a6.172,6.172,0,0,0-1.844-4.419Zm0,0" transform="translate(-62.999 272.329)" fill="#ad3822"/>
    <path id="Tracé_48" data-name="Tracé 48" d="M216.956,273.8A3.956,3.956,0,1,0,213,269.843a3.956,3.956,0,0,0,3.956,3.956Zm0-6.782a2.826,2.826,0,1,1-2.826,2.826,2.826,2.826,0,0,1,2.826-2.826Zm0,0" transform="translate(-108.739 419.619)" fill="#ad3822"/>
  </g>
</svg>
