<svg xmlns="http://www.w3.org/2000/svg" width="21.24" height="30.157" viewBox="0 0 21.24 30.157">
  <g id="Groupe_51" data-name="Groupe 51" transform="translate(-132.924 -743.843)">
    <g id="Groupe_3" data-name="Groupe 3" transform="translate(133.924 744.843)">
      <path id="Union_2" data-name="Union 2" d="M9.628-1a10.612,10.612,0,0,1,1,21.177v7.98a1,1,0,0,1-1.669.743,35.036,35.036,0,0,1-7.306-8.685A19.5,19.5,0,0,1-.983,9.591,10.624,10.624,0,0,1,9.628-1Zm-1,26.844v-6.62a1,1,0,0,1,1-1A8.612,8.612,0,1,0,1.017,9.612q0,.021,0,.042A17.56,17.56,0,0,0,3.4,19.235,30.219,30.219,0,0,0,8.628,25.844Z" transform="translate(0 0)" fill="#f4f5f9"/>
    </g>
    <circle id="Ellipse_23" data-name="Ellipse 23" cx="4.5" cy="4.5" r="4.5" transform="translate(139 750)" fill="#f4f5f9"/>
  </g>
</svg>
