<?xml version="1.0" encoding="utf-8"?>
<!-- Generator: Adobe Illustrator 26.2.1, SVG Export Plug-In . SVG Version: 6.00 Build 0)  -->
<svg version="1.1" id="Groupe_100" xmlns="http://www.w3.org/2000/svg" xmlns:xlink="http://www.w3.org/1999/xlink" x="0px" y="0px"
	 viewBox="0 0 93.3 19.7" style="enable-background:new 0 0 93.3 19.7;" xml:space="preserve">
<style type="text/css">
	.st0{fill:#FFFFFF;}
	.st1{clip-path:url(#SVGID_00000041981643194653668390000014750787676668342956_);}
</style>
<path id="Tracé_72" class="st0" d="M11.1,5.1l-1.5,9.7H6.2l-0.8,4.9l9.6,0l2.3-14.7L11.1,5.1z"/>
<path id="Tracé_73" class="st0" d="M2.3,0.2L0,14.8l6.2,0l1.5-9.7h3.4l0.8-4.9L2.3,0.2z"/>
<path id="Tracé_74" class="st0" d="M11.1,5.1H7.7l-1.5,9.7h3.4L11.1,5.1z"/>
<g id="Groupe_99" transform="translate(0 0)">
	<g>
		<defs>
			<rect id="SVGID_1_" y="0" width="93.3" height="19.7"/>
		</defs>
		<use xlink:href="#SVGID_1_"  style="overflow:visible;fill:#FFFFFF;"/>
		<clipPath id="SVGID_00000004526048041109760890000007892520683142576286_">
			<use xlink:href="#SVGID_1_"  style="overflow:visible;"/>
		</clipPath>
		<g id="Groupe_98" style="clip-path:url(#SVGID_00000004526048041109760890000007892520683142576286_);">
			<path id="Tracé_75" class="st0" d="M31.1,4.8C30,4.7,28.9,5,28,5.5c-0.4,0.2-0.7,0.5-0.9,0.9c-0.2,0.4-0.4,0.8-0.6,1.2
				c-0.2,0.6-0.3,1.2-0.4,1.8c-0.1,0.7-0.2,1.4-0.2,2.1c0,2.2,0.9,3.4,2.7,3.4c0.4,0,0.7,0,1.1,0c1.4,0,2.7-0.2,4.1-0.6l0.3-1.8
				c-1.1,0.2-2.3,0.3-3.4,0.3H30c-0.5,0.1-1-0.1-1.3-0.4c-0.1-0.2-0.2-0.4-0.2-0.7c0-0.3,0-0.6,0.1-0.8c1.7,0.5,3.6,0.3,5.1-0.7
				c0.4-0.3,0.7-0.7,0.9-1.1C34.8,8.6,35,8,35,7.4C35,5.6,33.7,4.8,31.1,4.8 M31.5,9c-0.2,0.1-0.5,0.2-0.7,0.2
				c-0.2,0-0.4,0.1-0.6,0.1c-0.1,0-0.3,0-0.6,0c-0.3,0-0.6,0-0.8-0.1c0.1-0.3,0.1-0.6,0.2-0.8C29,8.3,29,8.2,29,8.1
				c0-0.1,0.1-0.2,0.1-0.3c0-0.1,0.1-0.2,0.2-0.3c0.1-0.1,0.2-0.1,0.2-0.2c0.7-0.4,1.6-0.5,2.4-0.2c0.2,0.1,0.3,0.4,0.3,0.6
				C32.4,8.3,32,8.8,31.5,9"/>
			<path id="Tracé_76" class="st0" d="M41.5,4.8c-0.3,0-0.6,0-0.8,0s-0.4,0-0.7,0s-0.6,0.1-0.9,0.1C38.7,5,38.3,5.1,38,5.2
				c-0.4,0.2-0.7,0.4-1,0.7c-0.3,0.4-0.6,0.8-0.8,1.3c-0.3,0.6-0.5,1.3-0.6,2c-0.1,0.8-0.2,1.6-0.2,2.3c0,0.7,0.1,1.4,0.5,2
				c0.4,0.8,1.3,1.3,2.2,1.3c0.4,0,0.9-0.1,1.3-0.2c0.7-0.1,1.3-0.5,1.8-1l0.4,1h2l1.3-8.8c-0.6-0.5-1.3-0.8-2.1-0.9
				C42.2,4.9,41.8,4.8,41.5,4.8 M41.3,11.8c-0.6,0.6-1.4,1-2.3,0.9c-0.5,0-0.9-0.3-1-0.8c-0.1-0.3-0.1-0.6-0.1-0.9
				c0-0.4,0.1-0.9,0.1-1.3c0-0.8,0.3-1.7,0.8-2.3c0.1-0.2,0.3-0.3,0.5-0.4C39.6,7,39.8,6.9,40,6.9c0.3,0,0.6-0.1,0.8-0.1
				c0.4,0,0.8,0.1,1.2,0.2L41.3,11.8z"/>
			<path id="Tracé_77" class="st0" d="M67.3,5.3c-0.5-0.3-1.1-0.4-1.6-0.4c-1.7,0-3.4,0.1-5.1,0.5l-2.3,14.4h2.6l0.9-5.5
				c0.8,0.5,1.8,0.8,2.7,0.7c1.1,0.1,2.1-0.4,2.8-1.1c0.8-1,1.3-2.3,1.4-3.5c0.1-0.6,0.1-1.2,0.1-1.8c0-0.7-0.1-1.4-0.4-2
				C68,6,67.7,5.6,67.3,5.3 M65.9,9.8c-0.2,1.6-0.6,2.5-1.1,2.8c-0.2,0.2-0.5,0.3-0.7,0.3c-0.3,0-0.5,0-0.6,0
				c-0.5,0-1.1-0.1-1.6-0.4l0.9-5.7h2c0.8,0,1.2,0.6,1.2,1.7C66.1,9,66,9.4,65.9,9.8"/>
			<path id="Tracé_78" class="st0" d="M74.8,4.8c-0.7,0-1.4,0.1-2.1,0.2c-0.5,0.1-1.1,0.4-1.5,0.8c-0.5,0.4-0.8,0.9-1,1.5
				c-0.3,0.7-0.5,1.4-0.6,2.1c-0.1,0.6-0.2,1.3-0.2,1.9c0,0.8,0.2,1.6,0.6,2.3c0.6,0.8,1.7,1.2,3.3,1.2c0.7,0,1.5-0.1,2.2-0.2
				c0.5-0.1,1-0.4,1.5-0.7c0.4-0.4,0.8-0.9,1-1.4c0.3-0.7,0.4-1.3,0.5-2.1c0.1-0.7,0.2-1.3,0.2-2c0-0.8-0.1-1.6-0.6-2.3
				C77.5,5.3,76.4,4.8,74.8,4.8 M75.9,10c-0.1,0.5-0.2,1-0.3,1.5c-0.1,0.3-0.2,0.6-0.5,0.8c-0.2,0.2-0.4,0.3-0.6,0.4
				c-0.3,0.1-0.7,0.1-1,0.1c-0.4,0-0.8-0.1-1.1-0.2c-0.2-0.1-0.3-0.3-0.3-0.5C72,11.8,72,11.6,72,11.3c0-0.5,0.1-1.1,0.2-1.6
				c0.1-0.6,0.2-1.2,0.4-1.7c0.1-0.4,0.4-0.7,0.7-0.9C73.6,7,74,6.9,74.4,6.9c0.3,0,0.7,0,1,0.1c0.2,0.1,0.4,0.2,0.5,0.4
				c0.1,0.3,0.2,0.6,0.2,0.9C76.1,8.9,76,9.5,75.9,10"/>
			<path id="Tracé_79" class="st0" d="M90.8,7.1H93L93.3,5h-2.2l0.4-2.7h-2.2L88.5,5l-1.5,0l-0.4,2.1h1.5l-0.7,4.2
				c0,0.3-0.1,0.7-0.1,1c0,0.6,0.1,1.1,0.4,1.6c0.5,0.6,1.2,0.9,1.9,0.9h1.8l0.3-1.6c-0.2-0.1-0.5-0.1-0.7-0.2
				c-0.3-0.1-0.5-0.2-0.7-0.3c-0.1-0.1-0.2-0.2-0.2-0.4c-0.1-0.5-0.1-0.9,0.1-1.4L90.8,7.1z"/>
			<path id="Tracé_80" class="st0" d="M26.4,4.9c0,0-0.7,0-1.2,0c-1.1,0.1-2.1,0.5-2.8,1.3L22.1,5h-2.2l-1.5,9.8H21l1-5.7
				c0.1-0.4,0.3-0.7,0.6-0.9c1-0.7,2.2-1.1,3.4-1L26.4,4.9z"/>
			<path id="Tracé_81" class="st0" d="M85.4,4.9c-1.1,0.1-2.1,0.5-2.8,1.3L82.4,5h-2.2l-1.6,9.8h2.6l1-5.7c0.1-0.4,0.3-0.7,0.6-0.9
				c0.9-0.7,2.1-1.1,3.2-1l0.4-2.1C86.5,4.9,86,4.9,85.4,4.9"/>
			<path id="Tracé_82" class="st0" d="M47.8,10.9L49.6,0H47l-1.8,11.3c-0.1,0.3-0.1,0.7-0.1,1c-0.2,1.2,0.7,2.3,1.9,2.5
				c0.2,0,0.4,0,0.6,0h1.7l0.2-1.6c-0.2-0.1-0.5-0.1-0.7-0.2c-0.3-0.1-0.5-0.2-0.7-0.3c-0.1-0.1-0.2-0.2-0.2-0.3
				c-0.1-0.2-0.1-0.4-0.1-0.5C47.8,11.6,47.8,11.3,47.8,10.9"/>
			<path id="Tracé_83" class="st0" d="M58.4,11.5c0-0.2,0.1-0.4,0.1-0.6c0-0.5-0.1-1-0.4-1.4c-0.5-0.6-1.2-0.9-1.9-0.8h-2.6
				c0,0-0.1,0-0.1,0c0,0-0.1,0-0.1-0.1c-0.1-0.1-0.2-0.2-0.1-0.6l0.1-0.5c0-0.2,0.1-0.4,0.2-0.5C53.7,7,53.9,6.9,54.2,7h4.4l0.3-1.6
				c-0.5-0.3-2.2-0.5-5.1-0.5C53,4.8,52.2,5,51.6,5.4c-0.5,0.5-0.8,1.1-0.9,1.8l-0.1,0.9c0,0.2-0.1,0.4-0.1,0.6
				c0,0.5,0.2,1.1,0.5,1.5c0.5,0.5,1.2,0.8,2,0.7h2.2c0.2,0,0.3,0,0.4,0.1c0.1,0.1,0.2,0.2,0.1,0.5l-0.1,0.5c0,0.4-0.4,0.7-0.7,0.6
				c0,0,0,0,0,0h-4.6l-0.3,1.6c0.5,0.4,2.3,0.5,5.4,0.5c0.6,0,1.2-0.1,1.7-0.4c0.7-0.4,1.1-1.1,1.1-1.9L58.4,11.5z"/>
		</g>
	</g>
</g>
</svg>
