<svg xmlns="http://www.w3.org/2000/svg" width="18.549" height="16.493" viewBox="0 0 18.549 16.493">
  <g id="Groupe_57" data-name="Groupe 57" transform="translate(-107.346 -655.507)">
    <g id="Groupe_55" data-name="Groupe 55" transform="translate(107.346 656.507)">
      <path id="Tracé_47" data-name="Tracé 47" d="M176.165,420.635a.6.6,0,1,0-.838.847,5.326,5.326,0,0,1,1.59,3.812c0,.729-2.089,1.788-5.363,1.788s-5.363-1.059-5.363-1.789a5.326,5.326,0,0,1,1.57-3.791.6.6,0,1,0-.843-.843A6.511,6.511,0,0,0,165,425.294c0,1.935,3.377,2.979,6.555,2.979s6.555-1.044,6.555-2.979a6.507,6.507,0,0,0-1.944-4.659Zm0,0" transform="translate(-164.999 -412.78)" fill="currentColor"/>
      <path id="Tracé_48" data-name="Tracé 48" d="M217.171,274.229A4.171,4.171,0,1,0,213,270.058a4.171,4.171,0,0,0,4.171,4.171Zm0-7.151a2.979,2.979,0,1,1-2.979,2.979,2.979,2.979,0,0,1,2.979-2.979Zm0,0" transform="translate(-210.616 -265.887)" fill="currentColor"/>
    </g>
    <g id="Groupe_56" data-name="Groupe 56" transform="translate(120.173 656.507)">
      <path id="Ligne_24" data-name="Ligne 24" d="M0,5.722a1,1,0,0,1-1-1V0A1,1,0,0,1,0-1,1,1,0,0,1,1,0V4.722A1,1,0,0,1,0,5.722Z" transform="translate(2.361 0)" fill="currentColor"/>
      <path id="Ligne_25" data-name="Ligne 25" d="M0,5.722a1,1,0,0,1-1-1V0A1,1,0,0,1,0-1,1,1,0,0,1,1,0V4.722A1,1,0,0,1,0,5.722Z" transform="translate(4.722 2.361) rotate(90)" fill="currentColor"/>
    </g>
  </g>
</svg>
