<svg xmlns="http://www.w3.org/2000/svg" width="23.939" height="17" viewBox="0 0 23.939 17">
  <g id="Groupe_1" data-name="Groupe 1" transform="translate(-322 -44)">
    <path id="Tracé_4" data-name="Tracé 4" d="M14,1.5H0A1.5,1.5,0,0,1-1.5,0,1.5,1.5,0,0,1,0-1.5H14A1.5,1.5,0,0,1,15.5,0,1.5,1.5,0,0,1,14,1.5Z" transform="translate(323.5 45.5)" fill="currentColor"/>
    <path id="Tracé_5" data-name="Tracé 5" d="M20.939,1.5H0A1.5,1.5,0,0,1-1.5,0,1.5,1.5,0,0,1,0-1.5H20.939a1.5,1.5,0,0,1,1.5,1.5A1.5,1.5,0,0,1,20.939,1.5Z" transform="translate(323.5 52.5)" fill="currentColor"/>
    <path id="Tracé_6" data-name="Tracé 6" d="M17.661,1.5H0A1.5,1.5,0,0,1-1.5,0,1.5,1.5,0,0,1,0-1.5H17.661a1.5,1.5,0,0,1,1.5,1.5A1.5,1.5,0,0,1,17.661,1.5Z" transform="translate(323.5 59.5)" fill="currentColor"/>
  </g>
</svg>
