<svg xmlns="http://www.w3.org/2000/svg" xmlns:xlink="http://www.w3.org/1999/xlink" width="26" height="26" viewBox="0 0 26 26">
  <defs>
    <clipPath id="clip-path">
      <rect id="Rectangle_17" data-name="Rectangle 17" width="26" height="26" transform="translate(0.056 0.056)" fill="currentColor"/>
    </clipPath>
  </defs>
  <g id="Groupe_46" data-name="Groupe 46" transform="translate(-0.073 -0.056)">
    <g id="Groupe_45" data-name="Groupe 45" transform="translate(0.017 0)">
      <g id="Groupe_44" data-name="Groupe 44" transform="translate(0)">
        <g id="Groupe_43" data-name="Groupe 43" clip-path="url(#clip-path)">
          <path id="Tracé_49" data-name="Tracé 49" d="M147.761,280.395H136.716a4.744,4.744,0,0,1-4.915-4.517v-5.921a.949.949,0,1,1,1.9,0v5.921a2.847,2.847,0,0,0,3.018,2.619h11.045a2.847,2.847,0,0,0,3.018-2.619v-5.921a.949.949,0,1,1,1.9,0v5.921a4.744,4.744,0,0,1-4.915,4.517Zm7.487-12.611a.949.949,0,0,0,0-1.347L142.912,254.1a.949.949,0,0,0-1.347,0l-12.336,12.336a.953.953,0,0,0,1.347,1.347l11.662-11.671L153.9,267.784a.949.949,0,0,0,1.347,0Zm0,0" transform="translate(-129.198 -254.054)" fill="currentColor"/>
        </g>
      </g>
    </g>
    <path id="Tracé_50" data-name="Tracé 50" d="M239.168,492.151h-8.777a1.009,1.009,0,0,1,0-2.017h8.777a1.009,1.009,0,0,1,0,2.017Z" transform="translate(-221.672 -471.682)" fill="currentColor"/>
  </g>
</svg>
