<?xml version="1.0" encoding="UTF-8"?>
<svg id="Calque_2" xmlns="http://www.w3.org/2000/svg" width="9.008" height="12.776" viewBox="0 0 99.78 142"><defs><style>.cls-1{stroke-width:0px;}</style></defs>
    <g id="Calque_1-2">
        <path id="Tracé_55" class="cls-1" transform="translate(0)" transform="translate(548.537 434.699)" fill="currentColor"
            d="m99.78,50.38c0,27.55-22.34,49.89-49.89,49.89h0v41.73S10.26,99.01,1.65,63.11C.55,58.96,0,54.68,0,50.38v-1C.28,21.83,22.83-.27,50.38,0c27.55.28,49.66,22.83,49.38,50.38h.02Zm-49.89-15.83c-8.74,0-15.83,7.1-15.82,15.84,0,8.74,7.1,15.83,15.84,15.82,8.74,0,15.82-7.09,15.82-15.83s-7.09-15.83-15.83-15.83c0,0,0,0,0,0Z"/>
    </g>
</svg>

