<svg id="Groupe_100" data-name="Groupe 100" xmlns="http://www.w3.org/2000/svg" xmlns:xlink="http://www.w3.org/1999/xlink" width="93.327" height="19.739" viewBox="0 0 93.327 19.739">
  <defs>
    <clipPath id="clip-path">
      <rect id="Rectangle_45" data-name="Rectangle 45" width="93.327" height="19.739" fill="none"/>
    </clipPath>
  </defs>
  <path id="Tracé_72" data-name="Tracé 72" d="M22.595,15.847l-1.538,9.71-3.393,0L16.883,30.5l9.606-.008L28.8,15.841Z" transform="translate(-11.464 -10.757)" fill="currentColor"/>
  <path id="Tracé_73" data-name="Tracé 73" d="M2.308.484,0,15.131l6.2-.006L7.738,5.416l3.393,0L11.913.476Z" transform="translate(0 -0.323)" fill="currentColor"/>
  <path id="Tracé_74" data-name="Tracé 74" d="M24.249,15.858l-3.393,0L19.319,25.57l3.393,0Z" transform="translate(-13.118 -10.768)" fill="currentColor"/>
  <g id="Groupe_99" data-name="Groupe 99" transform="translate(0 0)">
    <g id="Groupe_98" data-name="Groupe 98" clip-path="url(#clip-path)">
      <path id="Tracé_75" data-name="Tracé 75" d="M85.893,14.9a5.962,5.962,0,0,0-3.178.7,2.526,2.526,0,0,0-.887.9,5.979,5.979,0,0,0-.564,1.229,14.712,14.712,0,0,0-.425,1.764,11.276,11.276,0,0,0-.212,2.1q0,3.308,2.68,3.437.535.037,1.053.038a13.92,13.92,0,0,0,4.066-.573l.314-1.848a21.432,21.432,0,0,1-3.419.314h-.591a1.7,1.7,0,0,1-1.312-.407,1.05,1.05,0,0,1-.185-.656,4.86,4.86,0,0,1,.074-.841,6.4,6.4,0,0,0,5.119-.665,3,3,0,0,0,.9-1.128,3.963,3.963,0,0,0,.379-1.793q0-2.568-3.807-2.569m.315,4.214a2.62,2.62,0,0,1-.694.221,4.681,4.681,0,0,1-.609.083c-.142.006-.332.01-.573.01a5.214,5.214,0,0,1-.823-.074q.092-.48.167-.776a3.885,3.885,0,0,1,.111-.388c.025-.061.071-.166.139-.314a.865.865,0,0,1,.2-.3c.067-.056.151-.132.25-.231a2.743,2.743,0,0,1,2.411-.166.7.7,0,0,1,.286.61,1.355,1.355,0,0,1-.868,1.331" transform="translate(-54.749 -10.119)" fill="currentColor"/>
      <path id="Tracé_76" data-name="Tracé 76" d="M116.182,14.89c-.345-.03-.616-.046-.813-.046s-.434.009-.712.028-.566.052-.868.1a4.218,4.218,0,0,0-1.054.352,3.375,3.375,0,0,0-1.034.73,4.877,4.877,0,0,0-.832,1.3,8.237,8.237,0,0,0-.61,2.033,13.184,13.184,0,0,0-.212,2.338,3.8,3.8,0,0,0,.48,1.968,2.491,2.491,0,0,0,2.208,1.275A4.787,4.787,0,0,0,114,24.8a3.294,3.294,0,0,0,1.793-.979l.388,1.016h2l1.294-8.833a4.224,4.224,0,0,0-2.125-.942,11.045,11.045,0,0,0-1.164-.176m-.166,6.958a2.844,2.844,0,0,1-2.282.924.959.959,0,0,1-1.007-.758,3.494,3.494,0,0,1-.093-.877,7.855,7.855,0,0,1,.129-1.284,4.23,4.23,0,0,1,.85-2.329,1.879,1.879,0,0,1,.517-.388,2.53,2.53,0,0,1,.564-.175,4.5,4.5,0,0,1,.85-.065,3.66,3.66,0,0,1,1.173.222Z" transform="translate(-74.727 -10.08)" fill="currentColor"/>
      <path id="Tracé_77" data-name="Tracé 77" d="M190.434,15.615a2.952,2.952,0,0,0-1.636-.425,22.5,22.5,0,0,0-5.119.48l-2.316,14.354h2.587l.856-5.465a4.438,4.438,0,0,0,2.716.7,3.532,3.532,0,0,0,2.8-1.145,6.826,6.826,0,0,0,1.359-3.548,11.109,11.109,0,0,0,.129-1.8,5.187,5.187,0,0,0-.406-2,2.558,2.558,0,0,0-.97-1.146m-1.34,4.491q-.369,2.328-1.09,2.827a1.445,1.445,0,0,1-.721.277q-.388.038-.646.037a3.041,3.041,0,0,1-1.552-.406l.942-5.674h2.033q1.165,0,1.164,1.718a6.657,6.657,0,0,1-.129,1.22" transform="translate(-123.154 -10.315)" fill="currentColor"/>
      <path id="Tracé_78" data-name="Tracé 78" d="M221.661,15.075a9.308,9.308,0,0,0-2.134.2,3.523,3.523,0,0,0-1.488.757,3.787,3.787,0,0,0-1.025,1.5,9.688,9.688,0,0,0-.564,2.134,13.072,13.072,0,0,0-.185,1.912,3.93,3.93,0,0,0,.592,2.31q.868,1.219,3.344,1.22a9.555,9.555,0,0,0,2.162-.2,3.352,3.352,0,0,0,1.46-.739,3.653,3.653,0,0,0,.961-1.4,9.378,9.378,0,0,0,.536-2.052,13.255,13.255,0,0,0,.185-1.977,4.266,4.266,0,0,0-.555-2.347q-.85-1.312-3.289-1.312m1.109,5.156a12.815,12.815,0,0,1-.333,1.543,1.915,1.915,0,0,1-.462.832,1.243,1.243,0,0,1-.619.351,5.9,5.9,0,0,1-1.044.065,2.01,2.01,0,0,1-1.09-.241.793.793,0,0,1-.3-.453,3.191,3.191,0,0,1-.073-.766,11.028,11.028,0,0,1,.185-1.589,8.3,8.3,0,0,1,.443-1.737,1.618,1.618,0,0,1,.665-.85,2.349,2.349,0,0,1,1.118-.222,3.484,3.484,0,0,1,1.035.111.843.843,0,0,1,.489.444,1.945,1.945,0,0,1,.167.869,11.136,11.136,0,0,1-.185,1.645" transform="translate(-146.853 -10.237)" fill="currentColor"/>
      <path id="Tracé_79" data-name="Tracé 79" d="M274.192,11.77h2.2l.314-2.135h-2.2L274.95,6.9h-2.162l-.868,2.735-1.492.006-.373,2.129H271.6l-.683,4.185a8.078,8.078,0,0,0-.074,1.035,2.741,2.741,0,0,0,.425,1.626,2.214,2.214,0,0,0,1.922.869h1.774l.259-1.626a4.292,4.292,0,0,1-.712-.222,3.784,3.784,0,0,1-.739-.314,1.018,1.018,0,0,1-.249-.37,3.222,3.222,0,0,1,.056-1.4Z" transform="translate(-183.378 -4.685)" fill="currentColor"/>
      <path id="Tracé_80" data-name="Tracé 80" d="M65.233,15.379s-.66-.019-1.236-.006a4.376,4.376,0,0,0-2.811,1.269l-.2-1.238H58.8L57.25,25.216h2.588l1.046-5.726a2.065,2.065,0,0,1,.556-.938,5.084,5.084,0,0,1,3.368-1.044Z" transform="translate(-38.875 -10.436)" fill="currentColor"/>
      <path id="Tracé_81" data-name="Tracé 81" d="M251.865,15.373a4.375,4.375,0,0,0-2.811,1.269l-.2-1.238h-2.18l-1.552,9.812h2.587l1.046-5.725a2.067,2.067,0,0,1,.556-.938,4.941,4.941,0,0,1,3.232-1.044l.378-2.129s-.477-.019-1.053-.006" transform="translate(-166.446 -10.436)" fill="currentColor"/>
      <path id="Tracé_82" data-name="Tracé 82" d="M143.238,10.881,144.973,0h-2.587L140.6,11.287A6.2,6.2,0,0,0,140.5,12.3a2.188,2.188,0,0,0,2.477,2.476h1.663l.24-1.607a4.731,4.731,0,0,1-.693-.231,4.325,4.325,0,0,1-.73-.314.879.879,0,0,1-.221-.3.974.974,0,0,1-.083-.536q.028-.323.083-.915" transform="translate(-95.408 0)" fill="currentColor"/>
      <path id="Tracé_83" data-name="Tracé 83" d="M164.287,21.728a2.828,2.828,0,0,0,.056-.555,2.315,2.315,0,0,0-.425-1.386,2.188,2.188,0,0,0-1.9-.794h-2.606a.248.248,0,0,1-.111-.019.8.8,0,0,1-.092-.055q-.185-.092-.111-.554l.074-.48a.909.909,0,0,1,.24-.5.874.874,0,0,1,.628-.185h4.435l.258-1.626q-.776-.5-5.138-.5a3.105,3.105,0,0,0-2.088.61,2.9,2.9,0,0,0-.887,1.829l-.148.887a4.186,4.186,0,0,0-.056.647,2.1,2.1,0,0,0,.5,1.46,2.489,2.489,0,0,0,1.977.739h2.2a.976.976,0,0,1,.444.092c.123.062.167.24.13.536l-.092.5a.691.691,0,0,1-.758.628h-4.62l-.259,1.608q.721.536,5.378.536a3.607,3.607,0,0,0,1.7-.388,2.377,2.377,0,0,0,1.108-1.9Z" transform="translate(-105.886 -10.237)" fill="currentColor"/>
    </g>
  </g>
</svg>
