<svg xmlns="http://www.w3.org/2000/svg" width="33.118" height="33.53" viewBox="0 0 33.118 33.53">
  <path id="Tracé_39" data-name="Tracé 39" d="M132.841,234.727a16.166,16.166,0,0,0-23.065,0,16.663,16.663,0,0,0,0,23.356,16.166,16.166,0,0,0,23.065,0,16.663,16.663,0,0,0,0-23.356Zm-8.724-2.626a14.12,14.12,0,0,1,2.98.946,16.539,16.539,0,0,0-6.719,12.757,14.255,14.255,0,0,1-6.66,1.7,14.683,14.683,0,0,1,2.372-9.494,14.374,14.374,0,0,1,8.027-5.911ZM111.128,236.1a14.219,14.219,0,0,1,8.619-4.185,16.41,16.41,0,0,0-5.244,5.024,16.632,16.632,0,0,0-2.713,10.45,14.369,14.369,0,0,1-4.867-1.558,14.564,14.564,0,0,1,4.205-9.731ZM107,248.012a16.9,16.9,0,0,0,6.647,1.43,16.13,16.13,0,0,0,7.615-1.921,14.478,14.478,0,0,1,4.8,5.017,14.264,14.264,0,0,1-18.42-1.531,14.669,14.669,0,0,1-.642-3Zm14.311,12.973a14.215,14.215,0,0,1-10.181-4.27,14.724,14.724,0,0,1-1.475-1.747,16.167,16.167,0,0,0,7.013,2.14q.55.038,1.1.038a16.122,16.122,0,0,0,9.154-2.855,14.837,14.837,0,0,1,1.09,5.027,14.182,14.182,0,0,1-6.7,1.667Zm10.851-5q-.322.372-.671.727a14.673,14.673,0,0,1-1.651,1.439,16.761,16.761,0,0,0-2.031-6.423,16.411,16.411,0,0,0-5.52-5.842,14.7,14.7,0,0,1,1.9-6.738,14.447,14.447,0,0,1,6.933,6.827,14.714,14.714,0,0,1,1.038,10.01Zm.677-10.863a16.37,16.37,0,0,0-7.573-7.6A14.561,14.561,0,0,1,129,234.076a14.73,14.73,0,0,1,5.509,18.162,16.7,16.7,0,0,0-1.674-7.114Zm0,0" transform="translate(-104.75 -229.64)" fill="currentColor" stroke="#ad3822" stroke-width="0.5"/>
</svg>
