<svg xmlns="http://www.w3.org/2000/svg" xmlns:xlink="http://www.w3.org/1999/xlink" width="30" height="30" viewBox="0 0 30 30">
  <defs>
    <clipPath id="clip-path">
      <rect id="Rectangle_3" data-name="Rectangle 3" width="30" height="30" transform="translate(0 0)" fill="#f4f5f9"/>
    </clipPath>
  </defs>
  <g id="Groupe_18" data-name="Groupe 18" transform="translate(-132.806 -266.309)">
    <path id="Tracé_21" data-name="Tracé 21" d="M195.47,361.19c-1.708,0-5.756-.109-7.2-1.1l-14.214-9.777a1.466,1.466,0,0,1-.332-2.1l1.1-1.427c.471-5.961,6.466-7.217,6.527-7.229a.626.626,0,0,1,.744.547,5.923,5.923,0,0,0,2.172,4.392,6.347,6.347,0,0,0,4.532.884.626.626,0,0,1,.674.3l5,8.87a3.773,3.773,0,0,0,2.035,1.124c1.119.159,3.1.937,3.1,2.784,0,1.678-1.306,2.72-3.409,2.72-.106,0-.362.008-.72.008Zm-14.519-20.226a6.753,6.753,0,0,0-4.891,6.09.625.625,0,0,1-.128.345l-1.211,1.577a.21.21,0,0,0-.041.164.213.213,0,0,0,.09.142l14.214,9.776c1.064.732,4.977.928,7.193.873.821,0,2.172-.191,2.172-1.468,0-1.221-2.054-1.552-2.074-1.554-.269-.06-2.2-.531-2.895-1.736l-4.784-8.5a7.381,7.381,0,0,1-5.063-1.167,6.78,6.78,0,0,1-2.58-4.547Zm0,0" transform="translate(-36.794 -65.861)" fill="#f4f5f9"/>
    <path id="Tracé_22" data-name="Tracé 22" d="M211.712,428.586A13.047,13.047,0,0,1,204,426.033l-12.595-9.165.737-1.013,12.6,9.166a11.8,11.8,0,0,0,6.974,2.313c1.013,0,3.366-.009,3.366-.009l0,1.252s-2.358.009-3.372.009Zm0,0" transform="translate(-53.133 -135.205)" fill="#f4f5f9"/>
    <path id="Tracé_23" data-name="Tracé 23" d="M221.545,368.1l-.95-.816c2.917-3.4-.723-6.78-.879-6.922l.842-.926c1.637,1.488,3.948,5.213.988,8.664Zm0,0" transform="translate(-78.858 -83.941)" fill="#f4f5f9"/>
    <path id="Tracé_24" data-name="Tracé 24" d="M303.714,413.784a4.143,4.143,0,0,1-3.636-2.161l-4.112-7.56,1.1-.6,4.112,7.561a2.888,2.888,0,0,0,3.013,1.467l.98-.164.207,1.235-.98.164a4.2,4.2,0,0,1-.682.056Zm0,0" transform="translate(-148.146 -123.945)" fill="#f4f5f9"/>
    <path id="Tracé_25" data-name="Tracé 25" d="M270.79,434.131a.626.626,0,0,1-.172-1.229l3.566-1.019a.626.626,0,0,1,.343,1.2l-3.566,1.019a.641.641,0,0,1-.171.024Zm0,0" transform="translate(-124.7 -149.749)" fill="#f4f5f9"/>
    <path id="Tracé_26" data-name="Tracé 26" d="M335.659,423.216a.626.626,0,0,1-.171-1.228l1.717-.49a.626.626,0,1,1,.343,1.2l-1.716.49a.636.636,0,0,1-.172.024Zm0,0" transform="translate(-183.647 -140.31)" fill="#f4f5f9"/>
    <path id="Tracé_27" data-name="Tracé 27" d="M347.159,446.449a.626.626,0,0,1-.171-1.228l1.727-.494a.626.626,0,0,1,.343,1.2l-1.727.493a.624.624,0,0,1-.172.024Zm0,0" transform="translate(-194.097 -161.42)" fill="#f4f5f9"/>
    <path id="Tracé_28" data-name="Tracé 28" d="M359.639,469.7a.626.626,0,0,1-.171-1.228l1.779-.508a.626.626,0,1,1,.343,1.2l-1.779.509a.636.636,0,0,1-.172.024Zm0,0" transform="translate(-205.438 -182.535)" fill="#f4f5f9"/>
    <path id="Tracé_29" data-name="Tracé 29" d="M278.288,456.062l.346,1.2-5.253,1.509-.346-1.2Zm0,0" transform="translate(-127.309 -171.741)" fill="#f4f5f9"/>
    <g id="Groupe_17" data-name="Groupe 17" transform="translate(132.806 266.309)">
      <g id="Groupe_16" data-name="Groupe 16" transform="translate(0 0)" clip-path="url(#clip-path)">
        <path id="Tracé_30" data-name="Tracé 30" d="M299.669,489.134a.626.626,0,0,1-.167-1.228l1.568-.436a.626.626,0,1,1,.336,1.205l-1.568.436a.63.63,0,0,1-.169.023Zm0,0" transform="translate(-283.749 -466.568)" fill="#f4f5f9"/>
        <path id="Tracé_31" data-name="Tracé 31" d="M268.126,272.572a.613.613,0,0,1-.239-.048.626.626,0,0,1-.339-.817l1.712-4.148a.626.626,0,0,1,1.157.478l-1.712,4.148a.627.627,0,0,1-.579.387Zm0,0" transform="translate(-255.086 -266.405)" fill="#f4f5f9"/>
      </g>
    </g>
    <path id="Tracé_32" data-name="Tracé 32" d="M328.292,300.21a.626.626,0,0,1-.611-.493,9.4,9.4,0,0,1,1.53-7.034l2.689-3.614a.626.626,0,0,1,1.005.747l-2.688,3.613a8.273,8.273,0,0,0-1.314,6.021.625.625,0,0,1-.478.745.6.6,0,0,1-.133.015Zm0,0" transform="translate(-176.801 -19.766)" fill="#f4f5f9"/>
    <path id="Tracé_33" data-name="Tracé 33" d="M181.469,340.81h-7.421a.626.626,0,0,1,0-1.252h7.421a.626.626,0,1,1,0,1.252Zm0,0" transform="translate(-36.791 -65.874)" fill="#f4f5f9"/>
    <path id="Tracé_34" data-name="Tracé 34" d="M137.628,385.025h-3.119a.626.626,0,0,1,0-1.252h3.119a.626.626,0,1,1,0,1.252Zm0,0" transform="translate(-0.862 -106.052)" fill="#f4f5f9"/>
    <path id="Tracé_35" data-name="Tracé 35" d="M285.123,564.091h-13.2a.626.626,0,0,1,0-1.252h13.2a.626.626,0,0,1,0,1.252Zm0,0" transform="translate(-125.726 -268.769)" fill="#f4f5f9"/>
    <path id="Tracé_36" data-name="Tracé 36" d="M166.52,504.029h-4a.626.626,0,0,1,0-1.252h4a.626.626,0,0,1,0,1.252Zm0,0" transform="translate(-26.317 -214.191)" fill="#f4f5f9"/>
    <path id="Tracé_37" data-name="Tracé 37" d="M335.659,423.216a.626.626,0,0,1-.171-1.228l1.717-.49a.626.626,0,1,1,.343,1.2l-1.716.49a.636.636,0,0,1-.172.024Zm0,0" transform="translate(-183.647 -140.31)" fill="#f4f5f9"/>
  </g>
</svg>
