<svg xmlns="http://www.w3.org/2000/svg" width="22.368" height="26.044" viewBox="0 0 22.368 26.044">
  <g id="Groupe_19" data-name="Groupe 19" transform="translate(-138.09 -231.94)">
    <path id="Tracé_38" data-name="Tracé 38" d="M158.844,253.043v-1.484a.375.375,0,0,0-.217-.34h0a2.093,2.093,0,0,1-.828-.793.376.376,0,1,0-.629.411,3.863,3.863,0,0,0,.254.348h-8.583a8.958,8.958,0,0,0,1.5-3.932,29.362,29.362,0,0,0,.456-4.469h4.678a24.088,24.088,0,0,0,1.017,6.623.376.376,0,1,0,.708-.251,23.292,23.292,0,0,1-.975-6.415,1.686,1.686,0,0,0,.871-2.776,2.472,2.472,0,0,0,1.5-2.065l.484-5.347a.376.376,0,0,0-.374-.41h-1.841a.376.376,0,0,0-.372.326l-.313,2.344a.495.495,0,0,1-.985-.065v-2.229a.376.376,0,0,0-.376-.376h-3.372a.376.376,0,0,0-.376.376v2.229a.495.495,0,0,1-.985.065l-.313-2.344a.376.376,0,0,0-.372-.326H147.56a.376.376,0,0,0-.374.41l.484,5.347a2.471,2.471,0,0,0,1.5,2.065,1.686,1.686,0,0,0,.87,2.776,28.532,28.532,0,0,1-.444,4.373,8.352,8.352,0,0,1-1.335,3.595,4.049,4.049,0,0,1-.577-1.306,6.458,6.458,0,0,1-.184-1.365,1.548,1.548,0,0,0,0-3A3.64,3.64,0,0,0,142.27,240a.376.376,0,0,0,.5.559,2.889,2.889,0,1,1,3.706,4.429h-3.557a2.891,2.891,0,0,1-.905-3.349.376.376,0,0,0-.7-.279,3.642,3.642,0,0,0,.579,3.674,1.548,1.548,0,0,0,0,3c-.072,1.906-.785,3.185-2.122,3.8h0a.375.375,0,0,0-.216.339v1.295a1.643,1.643,0,0,0-1.265,1.6v2.338a.376.376,0,0,0,.376.376h21.217a.376.376,0,0,0,.376-.376v-2.615a1.793,1.793,0,0,0-1.415-1.75Zm-10.425-15.214-.447-4.938h1.1l.269,2.018a1.246,1.246,0,0,0,2.48-.165v-1.853h2.621v1.853a1.246,1.246,0,0,0,2.481.165l.269-2.018h1.1l-.447,4.938a1.726,1.726,0,0,1-1.727,1.577h-5.975a1.725,1.725,0,0,1-1.727-1.577Zm1.068,3.265a.937.937,0,0,1,.936-.936h5.421a.936.936,0,0,1,0,1.872h-5.422a.937.937,0,0,1-.936-.936Zm-2.849,12.336h-6.332v-.875h7.115v.488a1.786,1.786,0,0,0-.784.388Zm1.535-1.5h9.92V253h-9.92Zm-6.693-5.4a.8.8,0,0,1,.8-.8h4.845a.8.8,0,0,1,0,1.594h-4.845a.8.8,0,0,1-.8-.8Zm1.165,1.548h4.11a5.638,5.638,0,0,0,.933,3.11l-.049.024,0,0a.375.375,0,0,0-.215.339v.245h-6.247a5.1,5.1,0,0,0,1.47-3.721Zm-3.6,6.988a.89.89,0,0,1,.889-.889h6.184a1.78,1.78,0,0,0-.108.611v2.239h-6.965Zm20.466,1.962H146.758v-2.24a1.04,1.04,0,0,1,1.039-1.039h10.671a1.04,1.04,0,0,1,1.039,1.039Zm0,0" transform="translate(0 0)" fill="#f4f5f9"/>
    <path id="Tracé_38_-_Contour" data-name="Tracé 38 - Contour" d="M159.883,257.984H138.666a.576.576,0,0,1-.576-.576V255.07a1.832,1.832,0,0,1,1.265-1.748v-1.144a.578.578,0,0,1,.311-.51l.006,0,.018-.007a3.706,3.706,0,0,0,2-3.476,1.749,1.749,0,0,1-.117-3.245,3.841,3.841,0,0,1-.438-3.65.576.576,0,1,1,1.069.428,2.682,2.682,0,0,0-.191,1,2.713,2.713,0,0,0,.981,2.076h3.417a2.689,2.689,0,0,0-1.709-4.766,2.683,2.683,0,0,0-1.794.686.576.576,0,0,1-.769-.857,3.84,3.84,0,0,1,5.691,5.086,1.748,1.748,0,0,1-.117,3.245,6.059,6.059,0,0,0,.171,1.17,4.033,4.033,0,0,0,.4,1,9.259,9.259,0,0,0,1.124-3.278,28.334,28.334,0,0,0,.436-4.185,1.886,1.886,0,0,1-.978-2.854,2.676,2.676,0,0,1-1.39-2.12l-.484-5.347a.576.576,0,0,1,.573-.628H149.4a.578.578,0,0,1,.571.5l.313,2.344a.295.295,0,0,0,.587-.039v-2.229a.576.576,0,0,1,.576-.576h3.372a.576.576,0,0,1,.576.576v2.229a.295.295,0,0,0,.587.039l.313-2.343a.578.578,0,0,1,.57-.5h1.841a.576.576,0,0,1,.573.628l-.484,5.347a2.678,2.678,0,0,1-1.39,2.12,1.886,1.886,0,0,1-.979,2.855,22.729,22.729,0,0,0,.96,6.2.576.576,0,0,1-1.085.385,24.293,24.293,0,0,1-1.023-6.49h-4.289a29.645,29.645,0,0,1-.454,4.306,10.226,10.226,0,0,1-1.3,3.695h7.791l-.026-.039a.576.576,0,1,1,.964-.629,1.92,1.92,0,0,0,.732.715l.029.009.014.012a.577.577,0,0,1,.3.507v1.33a2,2,0,0,1,1.415,1.9v2.615A.576.576,0,0,1,159.883,257.984Zm-20.01-5.972h0l-.016.008a.174.174,0,0,0-.1.158v1.453l-.154.036a1.435,1.435,0,0,0-1.11,1.4v2.338a.176.176,0,0,0,.176.176h21.217a.176.176,0,0,0,.176-.176v-2.615a1.6,1.6,0,0,0-1.257-1.555l-.158-.034v-1.646a.174.174,0,0,0-.1-.159l-.028-.013a2.317,2.317,0,0,1-.884-.853.176.176,0,0,0-.294.192,3.674,3.674,0,0,0,.241.33l.27.327h-9.43l.268-.327a8.8,8.8,0,0,0,1.455-3.842,29.311,29.311,0,0,0,.453-4.437l0-.2h5.069l0,.2a23.816,23.816,0,0,0,1.005,6.561.178.178,0,0,0,.225.107.176.176,0,0,0,.106-.224,23.363,23.363,0,0,1-.986-6.478l0-.162.158-.037a1.5,1.5,0,0,0,1.153-1.449,1.483,1.483,0,0,0-.385-1l-.19-.209.26-.11a2.277,2.277,0,0,0,1.381-1.9l.484-5.347a.176.176,0,0,0-.175-.192h-1.841a.176.176,0,0,0-.174.153l-.313,2.343a.695.695,0,0,1-1.383-.092v-2.229a.176.176,0,0,0-.176-.176h-3.372a.176.176,0,0,0-.176.176v2.229a.695.695,0,0,1-1.383.092l-.313-2.344a.176.176,0,0,0-.174-.153H147.56a.176.176,0,0,0-.175.191l.484,5.347a2.275,2.275,0,0,0,1.381,1.9l.26.11-.19.209a1.482,1.482,0,0,0-.385,1,1.5,1.5,0,0,0,1.153,1.449l.158.037,0,.163a28.812,28.812,0,0,1-.447,4.406,8.487,8.487,0,0,1-1.377,3.685l-.169.2-.15-.218a4.257,4.257,0,0,1-.606-1.37,6.634,6.634,0,0,1-.19-1.407l-.006-.161.156-.04a1.348,1.348,0,0,0,0-2.614l-.307-.078.2-.244a3.44,3.44,0,0,0-4.943-4.758.176.176,0,1,0,.235.261,3.089,3.089,0,0,1,5.15,2.3,3.115,3.115,0,0,1-1.187,2.433l-.054.043h-3.7l-.054-.043a3.115,3.115,0,0,1-1.187-2.433,3.08,3.08,0,0,1,.22-1.147.176.176,0,1,0-.326-.13,3.442,3.442,0,0,0,.548,3.473l.2.244-.307.078a1.348,1.348,0,0,0,0,2.614l.157.04-.006.161C142.019,250.022,141.272,251.357,139.873,252.012Zm19.834,5.22H146.558v-2.44a1.24,1.24,0,0,1,1.239-1.239h10.671a1.24,1.24,0,0,1,1.239,1.239Zm-12.749-.4h12.349v-2.04a.84.84,0,0,0-.839-.839H147.8a.84.84,0,0,0-.839.839Zm-.751.4h-7.366V255.07a1.09,1.09,0,0,1,1.089-1.089h6.47l-.1.269a1.579,1.579,0,0,0-.1.543Zm-6.965-.4h6.566v-2.039a1.991,1.991,0,0,1,.043-.411H139.93a.69.69,0,0,0-.689.689Zm7.47-3.2h-6.605v-1.275h7.515v.849l-.158.034a1.592,1.592,0,0,0-.7.344Zm-6.205-.4h6.06a2,2,0,0,1,.655-.342v-.133h-6.715Zm17.786-.028h-10.32v-1.469h10.32Zm-9.92-.4h9.52v-.669h-9.52Zm-.752-.8H140.66l.379-.347a4.918,4.918,0,0,0,1.406-3.581l.008-.192h4.495l.008.192a5.453,5.453,0,0,0,.9,3l.134.188-.212.11-.037.019-.018.009a.173.173,0,0,0-.1.157Zm-5.975-.4h5.575v-.045a.578.578,0,0,1,.186-.423,5.87,5.87,0,0,1-.843-2.853h-3.73A5.464,5.464,0,0,1,141.646,251.6Zm5.476-4.072h-4.845a1,1,0,1,1,0-1.994h4.845a1,1,0,0,1,0,1.994Zm-4.845-1.594a.6.6,0,1,0,0,1.194h4.845a.6.6,0,0,0,0-1.194Zm13.544-3.708h-5.4a1.136,1.136,0,0,1,0-2.272h5.421a1.136,1.136,0,0,1,0,2.272Zm-5.4-1.872a.736.736,0,0,0,0,1.472h5.441a.736.736,0,0,0-.02-1.472Zm5.7-.752h-5.975a1.924,1.924,0,0,1-1.926-1.759l-.467-5.156h1.5l.293,2.191a1.046,1.046,0,0,0,2.082-.138v-2.053h3.021v2.053a1.046,1.046,0,0,0,2.082.138l.293-2.191h1.495l-.467,5.156A1.925,1.925,0,0,1,156.12,239.606Zm-7.93-6.515.427,4.72a1.526,1.526,0,0,0,1.528,1.4h5.975a1.527,1.527,0,0,0,1.528-1.4l.427-4.72h-.707l-.246,1.844a1.446,1.446,0,0,1-2.879-.191v-1.653h-2.221v1.653a1.446,1.446,0,0,1-2.879.191l-.246-1.844Z" transform="translate(0 0)" fill="#f4f5f9"/>
  </g>
</svg>
